{
	"asset": {
		"generator": "ls-web scripts/generate-logo-mesh.mjs",
		"version": "2.0"
	},
	"scene": 0,
	"scenes": [
		{
			"name": "Scene",
			"nodes": [
				0
			]
		}
	],
	"nodes": [
		{
			"mesh": 0,
			"name": "LocalAI"
		}
	],
	"meshes": [
		{
			"name": "LocalAI",
			"primitives": [
				{
					"attributes": {
						"POSITION": 0,
						"NORMAL": 1
					},
					"indices": 2
				}
			]
		}
	],
	"accessors": [
		{
			"bufferView": 0,
			"componentType": 5126,
			"count": 12408,
			"type": "VEC3",
			"min": [
				-0.11204708367586136,
				-0.07393050193786621,
				-0.011500000022351742
			],
			"max": [
				0.11204708367586136,
				0.07393050193786621,
				0.011500000022351742
			]
		},
		{
			"bufferView": 1,
			"componentType": 5126,
			"count": 12408,
			"type": "VEC3"
		},
		{
			"bufferView": 2,
			"componentType": 5125,
			"count": 74430,
			"type": "SCALAR"
		}
	],
	"bufferViews": [
		{
			"buffer": 0,
			"byteLength": 148896,
			"byteOffset": 0,
			"target": 34962
		},
		{
			"buffer": 0,
			"byteLength": 148896,
			"byteOffset": 148896,
			"target": 34962
		},
		{
			"buffer": 0,
			"byteLength": 297720,
			"byteOffset": 297792,
			"target": 34963
		}
	],
	"buffers": [
		{
			"byteLength": 595512,
			"uri": "localai-logo.bin"
		}
	]
}
